<svg width="800" height="800" viewBox="0 0 800 800" fill="none" xmlns="http://www.w3.org/2000/svg">
<path d="M739.313 346.062L735.781 331.078H410.094V468.922H604.688C584.484 564.859 490.734 615.359 414.156 615.359C358.437 615.359 299.703 591.922 260.828 554.25C240.318 534.057 223.991 510.016 212.784 483.505C201.577 456.994 195.709 428.532 195.516 399.75C195.516 341.687 221.609 283.609 259.578 245.406C297.547 207.203 354.891 185.828 411.906 185.828C477.203 185.828 524 220.5 541.5 236.313L639.453 138.875C610.719 113.625 531.781 50 408.75 50C313.828 50 222.812 86.3594 156.281 152.672C90.625 217.969 56.6406 312.391 56.6406 400C56.6406 487.609 88.7969 577.313 152.422 643.125C220.406 713.313 316.688 750 415.828 750C506.031 750 591.531 714.656 652.469 650.531C712.375 587.406 743.359 500.063 743.359 408.5C743.359 369.953 739.484 347.062 739.313 346.062Z" fill="#757F93"/>
</svg>
