<svg width="126" height="32" viewBox="0 0 126 32" fill="none" xmlns="http://www.w3.org/2000/svg">
<g clip-path="url(#clip0_2_63)">
<path d="M50.1635 18.9496L57.0769 27.4513H51.6178L45.4652 19.6433V27.4513H40.9905V5.07856H45.4652V18.2338L51.1479 11.7903H56.853L50.1635 18.9496ZM32.2651 11.343C31.2854 11.3577 30.3239 11.6096 29.4628 12.0772C28.6017 12.5447 27.8668 13.214 27.3209 14.0276V11.7903H23.0924V27.4513H27.5668V20.1354C27.5081 19.6044 27.5593 19.067 27.7172 18.5566C27.8751 18.0463 28.1364 17.5739 28.4848 17.1688C28.8331 16.7638 29.2611 16.4348 29.7421 16.2023C30.2232 15.9698 30.7469 15.8388 31.2807 15.8174C33.876 15.8174 34.2788 18.3679 34.2788 20.1354V27.4513H38.7534V19.151C38.7534 14.229 37.12 11.343 32.3547 11.343H32.2651ZM72.3126 19.9788C72.3298 20.3069 72.3298 20.635 72.3126 20.9633H60.5668V21.1199C60.7575 22.0528 61.2744 22.8873 62.0248 23.4737C62.7751 24.06 63.7098 24.3597 64.6612 24.3191C65.4159 24.352 66.1695 24.2322 66.8769 23.9669C67.5842 23.7017 68.2308 23.2965 68.7779 22.7755L71.7535 25.0129C70.8104 25.9753 69.6761 26.7295 68.4237 27.2265C67.1712 27.7236 65.8285 27.9527 64.4821 27.8989C63.3671 27.9693 62.25 27.7997 61.2061 27.4014C60.1623 27.0031 59.2161 26.3854 58.4315 25.5901C57.6468 24.7948 57.0419 23.8404 56.6577 22.7913C56.2735 21.7423 56.1188 20.623 56.2043 19.509C56.1813 18.4093 56.3851 17.3167 56.803 16.2992C57.2209 15.2817 57.8438 14.3612 58.633 13.5951C59.4223 12.829 60.3609 12.2336 61.3903 11.8461C62.4197 11.4587 63.5179 11.2874 64.6164 11.343C68.8227 11.343 72.3126 14.3186 72.3126 19.9788ZM68.1514 18.0547C68.1349 17.6116 68.0284 17.1764 67.8383 16.7758C67.6482 16.3752 67.3786 16.0174 67.0457 15.7244C66.7129 15.4313 66.3239 15.2091 65.9024 15.0712C65.481 14.9334 65.0358 14.8828 64.5942 14.9225C62.6268 14.7099 60.8451 16.0956 60.5668 18.0547H68.1514ZM5.19402 5.07856H0.71936V27.4513H14.1431V22.9772H5.19402V5.07856ZM85.7366 5.07856H90.211V27.4513H85.9825V25.8852C85.4456 26.5468 84.7612 27.0734 83.9843 27.4231C83.2073 27.7727 82.3593 27.9357 81.5081 27.8989C80.4682 27.8722 79.4447 27.6331 78.5005 27.1963C77.5564 26.7595 76.7115 26.1342 76.0179 25.3589C75.3243 24.5836 74.7966 23.6746 74.4673 22.6878C74.1379 21.701 74.0138 20.6573 74.1026 19.6208C73.997 18.5829 74.1086 17.5343 74.4303 16.5418C74.752 15.5493 75.2767 14.6347 75.9712 13.856C76.6656 13.0774 77.5145 12.4519 78.4639 12.0192C79.4133 11.5866 80.4424 11.3563 81.4856 11.343C82.2626 11.3089 83.0387 11.4298 83.7685 11.6987C84.4984 11.9676 85.1674 12.379 85.7366 12.9091V5.07856ZM86.0721 19.6208C86.1424 19.1042 86.1012 18.5785 85.9511 18.0792C85.8011 17.5798 85.5457 17.1185 85.2022 16.7262C84.8587 16.334 84.4351 16.0199 83.96 15.8053C83.4848 15.5906 82.9692 15.4804 82.4478 15.4819C80.3073 15.6373 78.6854 17.4779 78.8009 19.6208C78.6854 21.7637 80.3073 23.6046 82.4478 23.76C82.9692 23.7615 83.4849 23.6513 83.96 23.4366C84.4352 23.2219 84.8588 22.9079 85.2023 22.5156C85.5458 22.1233 85.8012 21.6619 85.9512 21.1626C86.1013 20.6632 86.1425 20.1375 86.0721 19.6208ZM18.6177 4.631C17.8982 4.64114 17.2093 4.92396 16.6902 5.42236C16.1711 5.92076 15.8604 6.59758 15.821 7.31613C15.821 8.86046 17.0732 10.1126 18.6177 10.1126C20.1623 10.1126 21.414 8.86021 21.414 7.31613C21.3745 6.59766 21.0639 5.92094 20.5448 5.4226C20.0258 4.92426 19.337 4.64144 18.6175 4.63124M16.3804 27.4513H20.8551V11.7903H16.3804V27.4513ZM126.008 2.84123V29.6887C126.008 30.2821 125.772 30.8511 125.352 31.2707C124.933 31.6903 124.364 31.926 123.77 31.926H96.923C96.3296 31.926 95.7605 31.6903 95.341 31.2707C94.9214 30.8511 94.6857 30.2821 94.6857 29.6887V2.84123C94.6857 2.24786 94.9214 1.67878 95.341 1.2592C95.7605 0.839622 96.3296 0.603905 96.923 0.603905H123.77C124.364 0.603905 124.933 0.839622 125.352 1.2592C125.772 1.67878 126.008 2.24786 126.008 2.84123ZM103.635 11.7903H99.1603V27.4513H103.635V11.7903ZM104.194 7.31589C104.194 5.77132 102.942 4.51917 101.398 4.51917C99.8533 4.51917 98.6009 5.77132 98.6009 7.31589C98.6009 8.86021 99.8531 10.1124 101.398 10.1124C102.942 10.1124 104.194 8.86021 104.194 7.31589ZM121.533 19.151C121.533 14.229 119.9 11.343 115.135 11.343C114.14 11.3431 113.16 11.5881 112.282 12.0563C111.404 12.5245 110.655 13.2015 110.101 14.0276V11.7903H105.872V27.4513H110.347V20.1354C110.288 19.6044 110.339 19.067 110.497 18.5566C110.655 18.0463 110.916 17.5739 111.265 17.1688C111.613 16.7638 112.041 16.4348 112.522 16.2023C113.003 15.9698 113.527 15.8388 114.061 15.8174C116.656 15.8174 117.059 18.3679 117.059 20.1354V27.4513H121.533V19.151Z" fill="#FEFEFE"/>
</g>
<defs>
<clipPath id="clip0_2_63">
<rect width="125.288" height="31.3221" fill="white" transform="translate(0.71936 0.603905)"/>
</clipPath>
</defs>
</svg>
